<?xml version="1.0" encoding="UTF-8" standalone="no"?>
<!-- Created with Inkscape (http://www.inkscape.org/) -->

<svg
   xmlns:dc="http://purl.org/dc/elements/1.1/"
   xmlns:cc="http://creativecommons.org/ns#"
   xmlns:rdf="http://www.w3.org/1999/02/22-rdf-syntax-ns#"
   xmlns:svg="http://www.w3.org/2000/svg"
   xmlns="http://www.w3.org/2000/svg"
   xmlns:sodipodi="http://sodipodi.sourceforge.net/DTD/sodipodi-0.dtd"
   xmlns:inkscape="http://www.inkscape.org/namespaces/inkscape"
   width="62.088886mm"
   height="62.088886mm"
   viewBox="0 0 219.99999 219.99999"
   id="svg2"
   version="1.1"
   inkscape:version="0.91 r13725"
   sodipodi:docname="address.svg">
  <defs
     id="defs4" />
  <sodipodi:namedview
     id="base"
     pagecolor="#ffffff"
     bordercolor="#666666"
     borderopacity="1.0"
     inkscape:pageopacity="0.0"
     inkscape:pageshadow="2"
     inkscape:zoom="0.35"
     inkscape:cx="524.28572"
     inkscape:cy="-111.85712"
     inkscape:document-units="px"
     inkscape:current-layer="layer1"
     showgrid="false"
     fit-margin-top="0"
     fit-margin-left="0"
     fit-margin-right="0"
     fit-margin-bottom="0"
     inkscape:window-width="1301"
     inkscape:window-height="744"
     inkscape:window-x="65"
     inkscape:window-y="24"
     inkscape:window-maximized="1" />
  <metadata
     id="metadata7">
    <rdf:RDF>
      <cc:Work
         rdf:about="">
        <dc:format>image/svg+xml</dc:format>
        <dc:type
           rdf:resource="http://purl.org/dc/dcmitype/StillImage" />
        <dc:title></dc:title>
      </cc:Work>
    </rdf:RDF>
  </metadata>
  <g
     inkscape:label="Layer 1"
     inkscape:groupmode="layer"
     id="layer1"
     transform="translate(572.1429,-200.50509)">
    <path
       style="fill:#000000"
       d="m -572.1429,399.50507 0,-21 21,0 21,0 0,21 0,21 -21,0 -21,0 0,-21 z m 36,0 0,-15 -15,0 -15,0 0,15 0,15 15,0 15,0 0,-15 z m -24,0 0,-9 9,0 9,0 0,9 0,9 -9,0 -9,0 0,-9 z m 36,18 c 0,-2.66667 0.33333,-3 3,-3 2.66666,0 3,-0.33333 3,-3 0,-2.66667 -0.33334,-3 -3,-3 l -3,0 0,-12 0,-12 5.5,0 5.5,0 0,-9 0,-9 6,0 c 5.73333,0 6,-0.11111 6,-2.5 l 0,-2.5 -11.5,0 -11.5,0 0,-3 c 0,-2.9697 0.0556,-3 5.5,-3 5.44444,0 5.5,-0.0303 5.5,-3 l 0,-3 -11.5,0 -11.5,0 0,3 c 0,2.66667 0.33333,3 3,3 2.66666,0 3,0.33333 3,3 0,2.66667 -0.33334,3 -3,3 -2.53334,0 -3,0.38889 -3,2.5 0,2.11111 0.46666,2.5 3,2.5 2.66666,0 3,0.33333 3,3 0,3 0,3 -6,3 l -6,0 0,-5.5 c 0,-5.44444 0.0303,-5.5 3,-5.5 2.66666,0 3,-0.33333 3,-3 0,-2.66667 -0.33334,-3 -3,-3 -2.66667,0 -3,-0.33333 -3,-3 0,-2.66667 -0.33334,-3 -3,-3 -2.66667,0 -3,-0.33333 -3,-3 0,-2.66667 -0.33334,-3 -3,-3 -2.66667,0 -3,0.33333 -3,3 0,2.66667 -0.33334,3 -3,3 -2.66667,0 -3,0.33333 -3,3 0,2.66667 -0.33334,3 -3,3 l -3,0 0,8.5 0,8.5 -3,0 -3,0 0,-11.5 0,-11.5 6,0 c 6,0 6,0 6,-3 0,-3 0,-3 -6,-3 l -6,0 0,-6 c 0,-6 0,-6 3,-6 3,0 3,0 3,-6 0,-6 0,-6 -3,-6 -3,0 -3,0 -3,-6 l 0,-6 9,0 9,0 0,-3 c 0,-3 0,-3 6,-3 6,0 6,0 6,3 l 0,3 14.5,0 14.5,0 0,3 c 0,2.66667 0.33333,3 3,3 2.66666,0 3,-0.33333 3,-3 0,-2.66667 0.33333,-3 3,-3 2.66666,0 3,-0.33333 3,-3 0,-2.66667 0.33333,-3 3,-3 3,0 3,0 3,-6 0,-6 0,-6 -3,-6 -2.66667,0 -3,0.33333 -3,3 0,2.66667 -0.33334,3 -3,3 -2.66667,0 -3,-0.33333 -3,-3 0,-2.9697 -0.0556,-3 -5.5,-3 -5.44445,0 -5.5,-0.0303 -5.5,-3 0,-2.66667 -0.33334,-3 -3,-3 -2.66667,0 -3,-0.33333 -3,-3 0,-2.66667 0.33333,-3 3,-3 2.66666,0 3,0.33333 3,3 0,2.9697 0.0556,3 5.5,3 5.44444,0 5.5,-0.0303 5.5,-3 0,-2.66667 -0.33334,-3 -3,-3 -2.66667,0 -3,-0.33333 -3,-3 0,-2.66667 0.33333,-3 3,-3 2.66666,0 3,-0.33333 3,-3 0,-2.9697 -0.0556,-3 -5.5,-3 -5.44445,0 -5.5,0.0303 -5.5,3 0,3 0,3 -6,3 -6,0 -6,0 -6,3 0,2.66667 -0.33334,3 -3,3 -2.66667,0 -3,0.33333 -3,3 0,2.66667 0.33333,3 3,3 2.66666,0 3,0.33333 3,3 0,3 0,3 -6,3 -6,0 -6,0 -6,3 0,2.66667 -0.33334,3 -3,3 -3,0 -3,0 -3,-6 0,-6 0,-6 -3,-6 -3,0 -3,0 -3,-6 0,-6 0,-6 3,-6 2.66666,0 3,0.33333 3,3 0,2.66667 0.33333,3 3,3 3,0 3,0 3,-6 0,-6 0,-6 -3,-6 -2.66667,0 -3,-0.33333 -3,-3 0,-2.66667 -0.33334,-3 -3,-3 -2.66667,0 -3,0.33333 -3,3 0,3 0,3 -6,3 -6,0 -6,0 -6,3 0,2.66667 0.33333,3 3,3 l 3,0 0,9 0,9 3,0 c 2.66666,0 3,0.33333 3,3 0,2.66667 -0.33334,3 -3,3 -2.66667,0 -3,-0.33333 -3,-3 0,-2.66667 -0.33334,-3 -3,-3 -3,0 -3,0 -3,6 0,6 0,6 -3,6 l -3,0 0,-9 0,-9 3,0 c 2.66667,0 3,-0.33333 3,-3 0,-2.66667 -0.33333,-3 -3,-3 l -3,0 0,-9 0,-9 3,0 c 2.53333,0 3,-0.38889 3,-2.5 0,-2.11111 -0.46667,-2.5 -3,-2.5 -2.66667,0 -3,-0.33333 -3,-3 0,-2.66667 0.33333,-3 3,-3 2.66667,0 3,0.33333 3,3 0,2.66667 0.33333,3 3,3 2.66666,0 3,-0.33333 3,-3 l 0,-3 15,0 15,0 0,3 c 0,2.66667 -0.33334,3 -3,3 -2.53334,0 -3,0.38889 -3,2.5 0,2.38889 0.26666,2.5 6,2.5 5.73333,0 6,-0.11111 6,-2.5 0,-2.11111 0.46666,-2.5 3,-2.5 2.53333,0 3,0.38889 3,2.5 l 0,2.5 14.5,0 14.5,0 0,6 c 0,6 0,6 3,6 l 3,0 0,-8.5 0,-8.5 -12,0 -12,0 0,-3 c 0,-2.66667 0.33333,-3 3,-3 3,0 3,0 3,-6 0,-6 0,-6 -3,-6 -2.66667,0 -3,0.33333 -3,3 0,2.66667 -0.33334,3 -3,3 -2.66667,0 -3,-0.33333 -3,-3 0,-2.66667 0.33333,-3 3,-3 2.66666,0 3,-0.33333 3,-3 0,-2.9697 -0.0556,-3 -5.5,-3 l -5.5,0 0,9 0,9 -3,0 -3,0 0,-18 0,-18 3,0 c 2.66666,0 3,-0.33333 3,-3 0,-2.53333 0.38888,-3 2.5,-3 2.38888,0 2.5,0.26667 2.5,6 l 0,6 12,0 12,0 0,-3 0,-3 -9,0 -9,0 0,-6 c 0,-6 0,-6 3,-6 2.66666,0 3,0.33333 3,3 0,3 0,3 6,3 6,0 6,0 6,-3 0,-2.66667 0.33333,-3 3,-3 3,0 3,0 3,6 0,6 0,6 3,6 2.66667,0 3,-0.33333 3,-3 0,-2.66667 0.33333,-3 3,-3 2.66667,0 3,0.33333 3,3 0,2.66667 -0.33333,3 -3,3 -2.66667,0 -3,0.33333 -3,3 0,2.66667 0.33333,3 3,3 2.66667,0 3,0.33333 3,3 0,2.66667 0.33333,3 3,3 3,0 3,0 3,6 0,6 0,6 3,6 2.66667,0 3,0.33333 3,3 0,2.66667 0.33333,3 3,3 3,0 3,0 3,-6 0,-6 0,-6 -3,-6 -2.66667,0 -3,-0.33333 -3,-3 l 0,-3 9,0 9,0 0,-3 c 0,-2.66667 -0.33333,-3 -3,-3 -2.66667,0 -3,-0.33333 -3,-3 0,-2.66667 -0.33333,-3 -3,-3 -2.66667,0 -3,-0.33333 -3,-3 0,-3 0,-3 6,-3 6,0 6,0 6,3 0,2.66667 0.33333,3 3,3 2.66667,0 3,-0.33333 3,-3 0,-3 0,-3 6,-3 6,0 6,0 6,3 0,2.66667 -0.33333,3 -3,3 -2.66667,0 -3,0.33333 -3,3 0,2.66667 0.33333,3 3,3 2.66667,0 3,0.33333 3,3 0,2.66667 0.33333,3 3,3 2.66667,0 3,-0.33333 3,-3 0,-2.66667 0.33333,-3 3,-3 2.66667,0 3,-0.33333 3,-3 0,-2.66667 -0.33333,-3 -3,-3 -3,0 -3,0 -3,-6 l 0,-6 5.5,0 c 5.44444,0 5.5,0.0303 5.5,3 0,2.66667 0.33333,3 3,3 2.66667,0 3,0.33333 3,3 0,2.66667 -0.33333,3 -3,3 -3,0 -3,0 -3,6 0,6 0,6 3,6 l 3,0 0,12 0,12 -3,0 c -2.66667,0 -3,0.33333 -3,3 0,2.66667 0.33333,3 3,3 2.53333,0 3,0.38889 3,2.5 0,2.36364 -0.3,2.5 -5.5,2.5 -5.44444,0 -5.5,0.0303 -5.5,3 0,3 0,3 -6,3 l -6,0 0,6 c 0,6 0,6 -3,6 -3,0 -3,0 -3,-6 0,-6 0,-6 3,-6 2.66667,0 3,-0.33333 3,-3 0,-2.66667 -0.33333,-3 -3,-3 -2.53333,0 -3,-0.38889 -3,-2.5 0,-2.11111 -0.46667,-2.5 -3,-2.5 -2.53333,0 -3,0.38889 -3,2.5 0,2.11111 -0.46667,2.5 -3,2.5 -2.53333,0 -3,-0.38889 -3,-2.5 0,-2.11111 -0.46667,-2.5 -3,-2.5 -2.53333,0 -3,0.38889 -3,2.5 0,2.11111 -0.46667,2.5 -3,2.5 -2.66667,0 -3,0.33333 -3,3 0,3 0,3 6,3 6,0 6,0 6,3 0,2.66667 0.33333,3 3,3 l 3,0 0,9 0,9 -3,0 c -3,0 -3,0 -3,-6 l 0,-6 -6,0 c -6,0 -6,0 -6,3 0,2.66667 0.33333,3 3,3 2.66667,0 3,0.33333 3,3 0,2.66667 -0.33333,3 -3,3 -2.66667,0 -3,0.33333 -3,3 l 0,3 12,0 12,0 0,-3 c 0,-2.66667 0.33333,-3 3,-3 3,0 3,0 3,6 l 0,6 8.5,0 8.5,0 0,-3 c 0,-2.9697 -0.0556,-3 -5.5,-3 -5.44444,0 -5.5,-0.0303 -5.5,-3 0,-2.66667 0.33333,-3 3,-3 2.66667,0 3,-0.33333 3,-3 0,-2.66667 -0.33333,-3 -3,-3 -3,0 -3,0 -3,-6 0,-6 0,-6 3,-6 3,0 3,0 3,6 0,5.73333 0.11111,6 2.5,6 2.11111,0 2.5,-0.46667 2.5,-3 0,-2.66667 0.33333,-3 3,-3 2.66667,0 3,-0.33333 3,-3 0,-2.66667 -0.33333,-3 -3,-3 -2.66667,0 -3,-0.33333 -3,-3 0,-3 0,-3 6,-3 l 6,0 0,-8.5 0,-8.5 15,0 15,0 0,3 c 0,2.66667 0.33333,3 3,3 2.53333,0 3,0.38889 3,2.5 0,2.11111 0.46667,2.5 3,2.5 3,0 3,0 3,6 l 0,6 -9,0 -9,0 0,3 0,3 -9,0 -9,0 0,9 0,9 3,0 c 3,0 3,0 3,-6 l 0,-6 6,0 c 6,0 6,0 6,3 0,2.66667 -0.33333,3 -3,3 -2.66667,0 -3,0.33333 -3,3 0,3 0,3 6,3 6,0 6,0 6,-3 0,-2.66667 0.33333,-3 3,-3 2.66667,0 3,-0.33333 3,-3 0,-2.66667 -0.33333,-3 -3,-3 -2.66667,0 -3,-0.33333 -3,-3 0,-3 0,-3 6,-3 l 6,0 0,12 0,12 -3,0 c -2.66667,0 -3,-0.33333 -3,-3 0,-2.66667 -0.33333,-3 -3,-3 -2.66667,0 -3,0.33333 -3,3 0,2.66667 -0.33333,3 -3,3 -2.66667,0 -3,0.33333 -3,3 0,2.66667 -0.33333,3 -3,3 -3,0 -3,0 -3,-6 0,-6 0,-6 -3,-6 -2.66667,0 -3,0.33333 -3,3 0,2.66667 -0.33333,3 -3,3 -2.66667,0 -3,0.33333 -3,3 0,2.66667 0.33333,3 3,3 2.66667,0 3,0.33333 3,3 0,3 0,3 -6,3 -6,0 -6,0 -6,-3 0,-2.66667 -0.33333,-3 -3,-3 -2.66667,0 -3,0.33333 -3,3 0,2.66667 -0.33333,3 -3,3 -2.66667,0 -3,0.33333 -3,3 l 0,3 15,0 15,0 0,-3 c 0,-2.66667 0.33333,-3 3,-3 2.66667,0 3,0.33333 3,3 0,2.66667 -0.33333,3 -3,3 -2.66667,0 -3,0.33333 -3,3 0,2.66667 0.33333,3 3,3 2.66667,0 3,0.33333 3,3 0,3 0,3 6,3 l 6,0 0,-6 c 0,-6 0,-6 3,-6 3,0 3,0 3,6 0,6 0,6 -3,6 -2.66667,0 -3,0.33333 -3,3 0,3 0,3 -6,3 -6,0 -6,0 -6,-3 0,-2.66667 -0.33333,-3 -3,-3 -3,0 -3,0 -3,6 l 0,6 9,0 9,0 0,3 c 0,2.66667 -0.33333,3 -3,3 -2.66667,0 -3,0.33333 -3,3 0,3 0,3 6,3 6,0 6,0 6,3 0,3 0,3 -6,3 -5.73333,0 -6,0.11111 -6,2.5 0,2.11111 -0.46667,2.5 -3,2.5 -2.66667,0 -3,0.33333 -3,3 0,2.66667 0.33333,3 3,3 3,0 3,0 3,6 0,6 0,6 3,6 3,0 3,0 3,-6 0,-6 0,-6 3,-6 3,0 3,0 3,6 0,6 0,6 -3,6 -2.66667,0 -3,0.33333 -3,3 0,2.66667 0.33333,3 3,3 2.66667,0 3,0.33333 3,3 0,2.66667 -0.33333,3 -3,3 -2.66667,0 -3,-0.33333 -3,-3 0,-2.66667 -0.33333,-3 -3,-3 -2.66667,0 -3,0.33333 -3,3 0,2.66667 -0.33333,3 -3,3 -2.66667,0 -3,0.33333 -3,3 0,3 0,3 -6,3 l -6,0 0,6 c 0,6 0,6 3,6 2.66667,0 3,-0.33333 3,-3 0,-2.66667 0.33333,-3 3,-3 2.66667,0 3,0.33333 3,3 0,2.66667 -0.33333,3 -3,3 -2.66667,0 -3,0.33333 -3,3 0,2.66667 -0.33333,3 -3,3 -2.66667,0 -3,-0.33333 -3,-3 0,-2.66667 -0.33333,-3 -3,-3 -2.66667,0 -3,0.33333 -3,3 0,3 0,3 -6,3 -6,0 -6,0 -6,-3 0,-2.66667 0.33333,-3 3,-3 2.66667,0 3,-0.33333 3,-3 0,-2.66667 0.33333,-3 3,-3 2.66667,0 3,-0.33333 3,-3 0,-3 0,-3 -6,-3 -6,0 -6,0 -6,3 0,2.9697 -0.0556,3 -5.5,3 -5.44444,0 -5.5,-0.0303 -5.5,-3 0,-3 0,-3 -6,-3 -6,0 -6,0 -6,3 0,2.66667 -0.33333,3 -3,3 -2.66667,0 -3,0.33333 -3,3 0,2.66667 0.33333,3 3,3 2.66667,0 3,0.33333 3,3 l 0,3 -9,0 -9,0 0,-3 c 0,-2.66667 -0.33333,-3 -3,-3 -2.66667,0 -3,-0.33333 -3,-3 0,-2.66667 -0.33333,-3 -3,-3 -2.66667,0 -3,-0.33333 -3,-3 0,-2.66667 0.33333,-3 3,-3 2.66667,0 3,0.33333 3,3 0,2.66667 0.33333,3 3,3 2.66667,0 3,-0.33333 3,-3 l 0,-3 9,0 9,0 0,-3 c 0,-2.66667 -0.33333,-3 -3,-3 -2.66667,0 -3,-0.33333 -3,-3 0,-2.66667 -0.33333,-3 -3,-3 -2.66667,0 -3,0.33333 -3,3 l 0,3 -9,0 -9,0 0,-6 c 0,-6 0,-6 3,-6 2.66667,0 3,0.33333 3,3 0,3 0,3 6,3 6,0 6,0 6,-3 0,-2.66667 -0.33333,-3 -3,-3 -2.66667,0 -3,-0.33333 -3,-3 0,-2.66667 0.33333,-3 3,-3 2.66667,0 3,-0.33333 3,-3 0,-3 0,-3 -6,-3 -6,0 -6,0 -6,3 0,2.66667 -0.33333,3 -3,3 -2.66667,0 -3,-0.33333 -3,-3 0,-2.66667 -0.33333,-3 -3,-3 -2.9697,0 -3,-0.0556 -3,-5.5 l 0,-5.5 -9,0 -9,0 0,5.5 c 0,5.44444 0.0303,5.5 3,5.5 2.66667,0 3,0.33333 3,3 0,2.66667 -0.33333,3 -3,3 l -3,0 0,9 0,9 3,0 c 2.66667,0 3,0.33333 3,3 0,3 0,3 -6,3 l -6,0 0,-6 c 0,-6 0,-6 -3,-6 l -3,0 0,15 0,15 -3,0 c -2.66667,0 -3,-0.33333 -3,-3 0,-3 0,-3 -6,-3 -6,0 -6,0 -6,-3 0,-2.66667 -0.33334,-3 -3,-3 -3,0 -3,0 -3,6 l 0,6 -5.5,0 c -5.44445,0 -5.5,-0.0303 -5.5,-3 z m 89,-6 c 0,-2.66667 -0.33333,-3 -3,-3 -2.66667,0 -3,0.33333 -3,3 0,2.66667 0.33333,3 3,3 2.66667,0 3,-0.33333 3,-3 z m -78,-9 c 0,-6 0,-6 3,-6 2.66666,0 3,0.33333 3,3 0,2.66667 0.33333,3 3,3 2.66666,0 3,0.33333 3,3 0,2.66667 0.33333,3 3,3 2.66666,0 3,-0.33333 3,-3 0,-2.66667 -0.33334,-3 -3,-3 -3,0 -3,0 -3,-6 l 0,-6 6,0 c 6,0 6,0 6,-3 0,-2.66667 0.33333,-3 3,-3 2.66666,0 3,-0.33333 3,-3 0,-2.66667 0.33333,-3 3,-3 2.66667,0 3,-0.33333 3,-3 0,-2.66667 -0.33333,-3 -3,-3 -2.9697,0 -3,-0.0556 -3,-5.5 l 0,-5.5 -6,0 c -5.73334,0 -6,0.11111 -6,2.5 0,2.11111 0.46666,2.5 3,2.5 l 3,0 0,9 0,9 -12,0 -12,0 0,3 c 0,2.53333 -0.38889,3 -2.5,3 -2.48149,0 -2.5,0.0667 -2.5,9 0,8.93333 0.0185,9 2.5,9 2.38888,0 2.5,-0.26667 2.5,-6 z m 131,-3 c 0,-2.66667 -0.33333,-3 -3,-3 -2.66667,0 -3,0.33333 -3,3 0,2.66667 0.33333,3 3,3 2.66667,0 3,-0.33333 3,-3 z m -29,-6 c 0,-2.53333 0.38889,-3 2.5,-3 2.11111,0 2.5,-0.46667 2.5,-3 0,-2.53333 -0.38889,-3 -2.5,-3 -2.11111,0 -2.5,-0.46667 -2.5,-3 0,-2.53333 0.38889,-3 2.5,-3 2.47059,0 2.5,-0.1 2.5,-8.5 l 0,-8.5 12,0 12,0 0,-3 c 0,-3 0,-3 -6,-3 -6,0 -6,0 -6,-3 l 0,-3 9,0 9,0 0,3 c 0,2.66667 0.33333,3 3,3 2.66667,0 3,-0.33333 3,-3 0,-2.66667 -0.33333,-3 -3,-3 -2.66667,0 -3,-0.33333 -3,-3 0,-3 0,-3 -6,-3 -6,0 -6,0 -6,-3 0,-2.66667 0.33333,-3 3,-3 2.66667,0 3,-0.33333 3,-3 0,-2.66667 0.33333,-3 3,-3 2.66667,0 3,-0.33333 3,-3 l 0,-3 -9,0 -9,0 0,6 c 0,6 0,6 -3,6 -3,0 -3,0 -3,-6 l 0,-6 -8.5,0 -8.5,0 0,3 c 0,2.9697 0.0556,3 5.5,3 5.44444,0 5.5,0.0303 5.5,3 0,2.9697 -0.0556,3 -5.5,3 -5.44444,0 -5.5,0.0303 -5.5,3 0,2.66667 -0.33333,3 -3,3 -2.66667,0 -3,-0.33333 -3,-3 0,-2.66667 -0.33333,-3 -3,-3 -2.66667,0 -3,-0.33333 -3,-3 0,-2.66667 0.33333,-3 3,-3 3,0 3,0 3,-6 0,-6 0,-6 3,-6 2.66667,0 3,-0.33333 3,-3 0,-2.66667 0.33333,-3 3,-3 2.66667,0 3,-0.33333 3,-3 0,-3 0,-3 -6,-3 -6,0 -6,0 -6,-3 l 0,-3 -15,0 -15,0 0,-3 c 0,-2.66667 -0.33333,-3 -3,-3 -2.66667,0 -3,-0.33333 -3,-3 0,-2.66667 0.33333,-3 3,-3 2.66667,0 3,-0.33333 3,-3 0,-2.66667 -0.33333,-3 -3,-3 -2.66667,0 -3,0.33333 -3,3 0,2.66667 -0.33333,3 -3,3 -3,0 -3,0 -3,-6 0,-6 0,-6 3,-6 2.66667,0 3,-0.33333 3,-3 0,-2.66667 -0.33333,-3 -3,-3 -3,0 -3,0 -3,-6 0,-6 0,-6 -3,-6 -2.53333,0 -3,-0.38889 -3,-2.5 0,-2.38889 0.26667,-2.5 6,-2.5 5.73333,0 6,0.11111 6,2.5 0,2.11111 0.46667,2.5 3,2.5 2.53333,0 3,-0.38889 3,-2.5 0,-2.11111 0.46667,-2.5 3,-2.5 2.66667,0 3,-0.33333 3,-3 l 0,-3 -12,0 -12,0 0,-3 c 0,-2.66667 0.33333,-3 3,-3 2.66667,0 3,-0.33333 3,-3 0,-2.66667 -0.33333,-3 -3,-3 -2.66667,0 -3,0.33333 -3,3 0,2.66667 -0.33333,3 -3,3 -2.66667,0 -3,-0.33333 -3,-3 0,-2.66667 -0.33333,-3 -3,-3 -2.66667,0 -3,0.33333 -3,3 0,2.66667 -0.33334,3 -3,3 -2.66667,0 -3,-0.33333 -3,-3 0,-2.66667 -0.33334,-3 -3,-3 -2.66667,0 -3,0.33333 -3,3 0,2.66667 0.33333,3 3,3 2.66666,0 3,0.33333 3,3 0,2.66667 0.33333,3 3,3 2.66666,0 3,0.33333 3,3 0,2.66667 0.33333,3 3,3 2.53333,0 3,0.38889 3,2.5 0,2.11111 0.46667,2.5 3,2.5 2.66667,0 3,0.33333 3,3 0,2.66667 -0.33333,3 -3,3 -2.66667,0 -3,0.33333 -3,3 0,2.66667 0.33333,3 3,3 3,0 3,0 3,6 0,6 0,6 -3,6 -2.66667,0 -3,0.33333 -3,3 0,2.66667 0.33333,3 3,3 2.66667,0 3,0.33333 3,3 0,2.66667 -0.33333,3 -3,3 -2.66667,0 -3,0.33333 -3,3 0,2.66667 0.33333,3 3,3 2.66667,0 3,0.33333 3,3 0,3 0,3 -6,3 -6,0 -6,0 -6,-3 0,-2.66667 -0.33334,-3 -3,-3 -2.66667,0 -3,0.33333 -3,3 0,2.66667 0.33333,3 3,3 2.66666,0 3,0.33333 3,3 0,3 0,3 -6,3 -6,0 -6,0 -6,-3 0,-2.66667 -0.33334,-3 -3,-3 -2.66667,0 -3,0.33333 -3,3 0,2.66667 -0.33334,3 -3,3 -2.66667,0 -3,0.33333 -3,3 0,2.66667 0.33333,3 3,3 2.66666,0 3,0.33333 3,3 0,2.66667 -0.33334,3 -3,3 -3,0 -3,0 -3,6 l 0,6 -5.5,0 c -5.44445,0 -5.5,0.0303 -5.5,3 0,2.53333 0.38888,3 2.5,3 2.11111,0 2.5,0.46667 2.5,3 0,2.66667 0.33333,3 3,3 2.66666,0 3,0.33333 3,3 0,2.66667 0.33333,3 3,3 2.66666,0 3,-0.33333 3,-3 0,-2.66667 0.33333,-3 3,-3 l 3,0 0,-9 0,-9 -3,0 c -2.66667,0 -3,-0.33333 -3,-3 l 0,-3 12,0 12,0 0,-6 c 0,-6 0,-6 3,-6 2.66667,0 3,0.33333 3,3 0,3 0,3 6,3 6,0 6,0 6,3 0,2.66667 -0.33333,3 -3,3 -3,0 -3,0 -3,6 l 0,6 6,0 6,0 0,6 c 0,6 0,6 -3,6 -2.66667,0 -3,-0.33333 -3,-3 0,-3 0,-3 -6,-3 l -6,0 0,-6 c 0,-6 0,-6 -3,-6 -3,0 -3,0 -3,6 0,6 0,6 -3,6 -2.66667,0 -3,-0.33333 -3,-3 0,-2.66667 -0.33334,-3 -3,-3 l -3,0 0,9 0,9 3,0 c 2.66666,0 3,-0.33333 3,-3 0,-2.66667 0.33333,-3 3,-3 2.66667,0 3,0.33333 3,3 0,3 0,3 6,3 6,0 6,0 6,-3 0,-2.66667 0.33333,-3 3,-3 2.66667,0 3,0.33333 3,3 0,2.66667 0.33333,3 3,3 2.66667,0 3,0.33333 3,3 0,3 0,3 6,3 6,0 6,0 6,-3 0,-3 0,-3 -6,-3 -6,0 -6,0 -6,-3 0,-2.66667 0.33333,-3 3,-3 l 3,0 0,-12 0,-12 -3,0 c -2.66667,0 -3,-0.33333 -3,-3 0,-2.66667 0.33333,-3 3,-3 2.66667,0 3,-0.33333 3,-3 0,-2.66667 -0.33333,-3 -3,-3 -2.66667,0 -3,-0.33333 -3,-3 0,-3 0,-3 6,-3 l 6,0 0,6 c 0,6 0,6 3,6 3,0 3,0 3,-6 l 0,-6 6,0 c 6,0 6,0 6,3 0,2.66667 -0.33333,3 -3,3 -3,0 -3,0 -3,6 l 0,6 -6,0 -6,0 0,6 c 0,6 0,6 3,6 2.66667,0 3,0.33333 3,3 0,2.66667 -0.33333,3 -3,3 -2.66667,0 -3,0.33333 -3,3 0,2.66667 0.33333,3 3,3 l 3,0 0,11.5 0,11.5 6,0 c 6,0 6,0 6,3 0,3 0,3 -6,3 -6,0 -6,0 -6,3 0,2.66667 0.33333,3 3,3 2.66667,0 3,0.33333 3,3 0,2.66667 0.33333,3 3,3 2.66667,0 3,0.33333 3,3 0,3 0,3 6,3 6,0 6,0 6,-3 z m -6,-6 c 0,-2.66667 0.33333,-3 3,-3 2.66667,0 3,0.33333 3,3 0,2.66667 -0.33333,3 -3,3 -2.66667,0 -3,-0.33333 -3,-3 z m 0,-12 c 0,-2.66667 -0.33333,-3 -3,-3 -2.66667,0 -3,-0.33333 -3,-3 0,-2.66667 -0.33333,-3 -3,-3 -2.53333,0 -3,-0.38889 -3,-2.5 0,-2.11111 0.46667,-2.5 3,-2.5 2.66667,0 3,-0.33333 3,-3 0,-2.66667 -0.33333,-3 -3,-3 -2.66667,0 -3,-0.33333 -3,-3 0,-3 0,-3 6,-3 6,0 6,0 6,-3 0,-2.66667 0.33333,-3 3,-3 2.66667,0 3,0.33333 3,3 0,2.9697 0.0556,3 5.5,3 5.44444,0 5.5,-0.0303 5.5,-3 0,-2.66667 0.33333,-3 3,-3 2.66667,0 3,0.33333 3,3 0,2.66667 -0.33333,3 -3,3 -2.66667,0 -3,0.33333 -3,3 0,2.9697 -0.0556,3 -5.5,3 -5.44444,0 -5.5,0.0303 -5.5,3 0,3 0,3 -6,3 -5.73333,0 -6,0.11111 -6,2.5 0,2.11111 0.46667,2.5 3,2.5 2.66667,0 3,0.33333 3,3 0,2.66667 0.33333,3 3,3 2.66667,0 3,0.33333 3,3 0,2.66667 -0.33333,3 -3,3 -2.66667,0 -3,-0.33333 -3,-3 z m 6,-23 c 0,-2.66667 -0.33333,-3 -3,-3 -2.66667,0 -3,0.33333 -3,3 0,2.66667 0.33333,3 3,3 2.66667,0 3,-0.33333 3,-3 z m -66,-6 c 0,-2.66667 0.33333,-3 3,-3 2.66667,0 3,0.33333 3,3 0,2.66667 -0.33333,3 -3,3 -2.66667,0 -3,-0.33333 -3,-3 z m 18,-18 c 0,-2.66667 0.33333,-3 3,-3 2.66667,0 3,0.33333 3,3 0,2.66667 -0.33333,3 -3,3 -2.66667,0 -3,-0.33333 -3,-3 z m -6,-30 c 0,-2.66667 0.33333,-3 3,-3 2.66667,0 3,0.33333 3,3 0,2.66667 -0.33333,3 -3,3 -2.66667,0 -3,-0.33333 -3,-3 z m -12,-47 c 0,-2.66667 -0.33333,-3 -3,-3 -2.66667,0 -3,-0.33333 -3,-3 0,-2.66667 0.33333,-3 3,-3 2.66667,0 3,0.33333 3,3 0,2.66667 0.33333,3 3,3 2.66667,0 3,0.33333 3,3 0,2.66667 -0.33333,3 -3,3 -2.66667,0 -3,-0.33333 -3,-3 z m 95,130 0,-9 -9,0 -9,0 0,9 0,9 9,0 9,0 0,-9 z m -12,0 c 0,-2.66667 0.33333,-3 3,-3 2.66667,0 3,0.33333 3,3 0,2.66667 -0.33333,3 -3,3 -2.66667,0 -3,-0.33333 -3,-3 z m 30,6 c 0,-2.66667 -0.33333,-3 -3,-3 -3,0 -3,0 -3,-6 0,-6 0,-6 -3,-6 l -3,0 0,9 0,9 6,0 c 6,0 6,0 6,-3 z m -131,-12 c 0,-2.66667 -0.33334,-3 -3,-3 -2.66667,0 -3,0.33333 -3,3 0,2.66667 0.33333,3 3,3 2.66666,0 3,-0.33333 3,-3 z m 125,-11.5 c 0,-2.11111 -0.46667,-2.5 -3,-2.5 -2.53333,0 -3,0.38889 -3,2.5 0,2.11111 0.46667,2.5 3,2.5 2.53333,0 3,-0.38889 3,-2.5 z m -184,-23.5 c 0,-2.66667 -0.33334,-3 -3,-3 -2.66667,0 -3,0.33333 -3,3 0,2.66667 0.33333,3 3,3 2.66666,0 3,-0.33333 3,-3 z m 30,0 0,-3 -9,0 -9,0 0,-3 0,-3 9,0 9,0 0,-3 c 0,-3 0,-3 -6,-3 -6,0 -6,0 -6,-3 0,-3 0,-3 6,-3 6,0 6,0 6,-3 l 0,-3 -12,0 -12,0 0,-3 c 0,-2.66667 -0.33334,-3 -3,-3 -2.66667,0 -3,0.33333 -3,3 0,2.66667 0.33333,3 3,3 2.66666,0 3,0.33333 3,3 0,2.66667 -0.33334,3 -3,3 -2.66667,0 -3,0.33333 -3,3 0,2.66667 -0.33334,3 -3,3 -2.66667,0 -3,0.33333 -3,3 0,2.66667 0.33333,3 3,3 2.66666,0 3,-0.33333 3,-3 0,-2.66667 0.33333,-3 3,-3 l 3,0 0,9 0,9 12,0 12,0 0,-3 z m 11,-24 c 0,-2.53333 -0.38889,-3 -2.5,-3 -2.11112,0 -2.5,0.46667 -2.5,3 0,2.53333 0.38888,3 2.5,3 2.11111,0 2.5,-0.46667 2.5,-3 z m 113,-12 c 0,-2.66667 0.33333,-3 3,-3 2.66667,0 3,-0.33333 3,-3 0,-2.66667 -0.33333,-3 -3,-3 -2.66667,0 -3,-0.33333 -3,-3 0,-2.66667 0.33333,-3 3,-3 3,0 3,0 3,-6 0,-6 0,-6 -3,-6 -2.66667,0 -3,0.33333 -3,3 0,2.66667 -0.33333,3 -3,3 -3,0 -3,0 -3,6 0,6 0,6 3,6 2.66667,0 3,0.33333 3,3 0,2.66667 -0.33333,3 -3,3 -2.66667,0 -3,0.33333 -3,3 0,2.66667 0.33333,3 3,3 2.66667,0 3,-0.33333 3,-3 z m -83,-18 0,-9 -3,0 c -2.66667,0 -3,-0.33333 -3,-3 0,-2.66667 -0.33334,-3 -3,-3 -2.66667,0 -3,0.33333 -3,3 0,2.66667 0.33333,3 3,3 2.66666,0 3,0.33333 3,3 0,2.66667 -0.33334,3 -3,3 -2.66667,0 -3,0.33333 -3,3 0,2.66667 0.33333,3 3,3 2.66666,0 3,0.33333 3,3 0,2.66667 0.33333,3 3,3 l 3,0 0,-9 z m -18,-12 c 0,-2.66667 -0.33334,-3 -3,-3 -2.66667,0 -3,0.33333 -3,3 0,2.66667 0.33333,3 3,3 2.66666,0 3,-0.33333 3,-3 z m -29,-6 c 0,-2.66667 -0.33334,-3 -3,-3 -2.66667,0 -3,-0.33333 -3,-3 0,-2.66667 -0.33334,-3 -3,-3 -2.66667,0 -3,0.33333 -3,3 0,2.66667 0.33333,3 3,3 2.66666,0 3,0.33333 3,3 0,2.66667 0.33333,3 3,3 2.66666,0 3,-0.33333 3,-3 z m 142,0 c 0,-2.66667 0.33333,-3 3,-3 2.66667,0 3,-0.33333 3,-3 0,-2.66667 -0.33333,-3 -3,-3 -2.66667,0 -3,0.33333 -3,3 0,2.66667 -0.33333,3 -3,3 -2.66667,0 -3,0.33333 -3,3 0,2.66667 0.33333,3 3,3 2.66667,0 3,-0.33333 3,-3 z m 18,0 c 0,-2.66667 -0.33333,-3 -3,-3 -2.66667,0 -3,0.33333 -3,3 0,2.66667 0.33333,3 3,3 2.66667,0 3,-0.33333 3,-3 z m -184,-11.5 c 0,-2.11111 -0.46667,-2.5 -3,-2.5 -2.53334,0 -3,0.38889 -3,2.5 0,2.11111 0.46666,2.5 3,2.5 2.53333,0 3,-0.38889 3,-2.5 z m 143,0 c 0,-2.11111 -0.46667,-2.5 -3,-2.5 -2.66667,0 -3,-0.33333 -3,-3 0,-2.9697 0.0556,-3 5.5,-3 l 5.5,0 0,-6 c 0,-5.73333 -0.11111,-6 -2.5,-6 -2.11111,0 -2.5,0.46667 -2.5,3 0,2.66667 -0.33333,3 -3,3 -2.66667,0 -3,-0.33333 -3,-3 0,-2.66667 -0.33333,-3 -3,-3 -2.66667,0 -3,0.33333 -3,3 0,2.66667 -0.33333,3 -3,3 -3,0 -3,0 -3,-6 0,-6 0,-6 3,-6 2.66667,0 3,-0.33333 3,-3 0,-2.66667 -0.33333,-3 -3,-3 -2.66667,0 -3,0.33333 -3,3 0,2.66667 -0.33333,3 -3,3 -2.66667,0 -3,-0.33333 -3,-3 0,-2.66667 -0.33333,-3 -3,-3 -3,0 -3,0 -3,6 0,6 0,6 -3,6 -2.66667,0 -3,0.33333 -3,3 0,2.66667 0.33333,3 3,3 2.66667,0 3,-0.33333 3,-3 0,-2.66667 0.33333,-3 3,-3 2.66667,0 3,0.33333 3,3 0,2.66667 0.33333,3 3,3 3,0 3,0 3,6 l 0,6 6,0 c 5.73333,0 6,0.11111 6,2.5 0,2.11111 0.46667,2.5 3,2.5 2.53333,0 3,-0.38889 3,-2.5 z m -12,-11.5 c 0,-2.66667 0.33333,-3 3,-3 2.66667,0 3,0.33333 3,3 0,2.66667 -0.33333,3 -3,3 -2.66667,0 -3,-0.33333 -3,-3 z m 53,11.5 c 0,-2.11111 -0.46667,-2.5 -3,-2.5 -2.53333,0 -3,0.38889 -3,2.5 0,2.11111 0.46667,2.5 3,2.5 2.53333,0 3,-0.38889 3,-2.5 z m -65,-5.5 c 0,-2.66667 -0.33333,-3 -3,-3 -2.66667,0 -3,0.33333 -3,3 0,2.66667 0.33333,3 3,3 2.66667,0 3,-0.33333 3,-3 z m -54,-24 c 0,-3 0,-3 -6,-3 -6,0 -6,0 -6,3 0,3 0,3 6,3 6,0 6,0 6,-3 z m 18,0 c 0,-2.66667 -0.33333,-3 -3,-3 -2.66667,0 -3,0.33333 -3,3 0,2.66667 0.33333,3 3,3 2.66667,0 3,-0.33333 3,-3 z m 60,0 c 0,-2.66667 -0.33333,-3 -3,-3 -2.66667,0 -3,0.33333 -3,3 0,2.66667 0.33333,3 3,3 2.66667,0 3,-0.33333 3,-3 z m -66,187 c 0,-6 0,-6 3,-6 3,0 3,0 3,6 0,6 0,6 -3,6 -3,0 -3,0 -3,-6 z m 60,3 c 0,-2.9697 0.0556,-3 5.5,-3 5.44444,0 5.5,0.0303 5.5,3 0,2.9697 -0.0556,3 -5.5,3 -5.44444,0 -5.5,-0.0303 -5.5,-3 z m 53,0 c 0,-2.66667 0.33333,-3 3,-3 3,0 3,0 3,-6 0,-6 0,-6 3,-6 l 3,0 0,9 0,9 -6,0 c -6,0 -6,0 -6,-3 z m -101,-6 c 0,-2.66667 0.33333,-3 3,-3 2.66667,0 3,0.33333 3,3 0,2.66667 -0.33333,3 -3,3 -2.66667,0 -3,-0.33333 -3,-3 z m 0,-18 c 0,-2.66667 0.33333,-3 3,-3 2.66667,0 3,0.33333 3,3 0,2.66667 -0.33333,3 -3,3 -2.66667,0 -3,-0.33333 -3,-3 z m 0,-12 c 0,-2.66667 0.33333,-3 3,-3 2.66667,0 3,0.33333 3,3 0,2.66667 -0.33333,3 -3,3 -2.66667,0 -3,-0.33333 -3,-3 z m -59,-6 c 0,-2.66667 0.33333,-3 3,-3 2.66666,0 3,0.33333 3,3 0,2.66667 -0.33334,3 -3,3 -2.66667,0 -3,-0.33333 -3,-3 z m -30,-17 c 0,-2.66667 0.33333,-3 3,-3 2.66666,0 3,0.33333 3,3 0,2.66667 -0.33334,3 -3,3 -2.66667,0 -3,-0.33333 -3,-3 z m 190,-48 c 0,-3 0,-3 6,-3 6,0 6,0 6,3 0,3 0,3 -6,3 -6,0 -6,0 -6,-3 z m -172,-12 0,-3 11.5,0 11.5,0 0,3 0,3 -11.5,0 -11.5,0 0,-3 z m -36,-77 0,-21 21,0 21,0 0,21 0,21 -21,0 -21,0 0,-21 z m 36,0 0,-15 -15,0 -15,0 0,15 0,15 15,0 15,0 0,-15 z m -24,0 0,-9 9,0 9,0 0,9 0,9 -9,0 -9,0 0,-9 z m 166,0 0,-21 21,0 21,0 0,21 0,21 -21,0 -21,0 0,-21 z m 36,0 0,-15 -15,0 -15,0 0,15 0,15 15,0 15,0 0,-15 z m -24,0 0,-9 9,0 9,0 0,9 0,9 -9,0 -9,0 0,-9 z m -83,-12 c 0,-2.66667 0.33333,-3 3,-3 2.66667,0 3,0.33333 3,3 0,2.66667 -0.33333,3 -3,3 -2.66667,0 -3,-0.33333 -3,-3 z"
       id="path4262"
       inkscape:connector-curvature="0" />
  </g>
</svg>
