<?xml version="1.0" encoding="UTF-8" standalone="no"?>
<!-- Created with Inkscape (http://www.inkscape.org/) -->

<svg
   xmlns:dc="http://purl.org/dc/elements/1.1/"
   xmlns:cc="http://creativecommons.org/ns#"
   xmlns:rdf="http://www.w3.org/1999/02/22-rdf-syntax-ns#"
   xmlns:svg="http://www.w3.org/2000/svg"
   xmlns="http://www.w3.org/2000/svg"
   xmlns:sodipodi="http://sodipodi.sourceforge.net/DTD/sodipodi-0.dtd"
   xmlns:inkscape="http://www.inkscape.org/namespaces/inkscape"
   width="3.2611532in"
   height="2.1715043in"
   viewBox="0 0 293.50379 195.43538"
   id="svg2"
   version="1.1"
   inkscape:version="0.91 r13725"
   sodipodi:docname="dctrl.svg">
  <defs
     id="defs4">
    <marker
       style="overflow:visible"
       refY="0"
       refX="0"
       orient="auto"
       id="DistanceX">
      <path
         id="path4162"
         style="stroke:#000000;stroke-width:0.5"
         d="M 3,-3 -3,3 M 0,-5 0,5"
         inkscape:connector-curvature="0" />
    </marker>
    <pattern
       y="0"
       x="0"
       width="8"
       patternUnits="userSpaceOnUse"
       id="Hatch"
       height="8">
      <path
         id="path4165"
         stroke-width="0.25"
         stroke="#000000"
         linecap="square"
         d="M8 4 l-4,4" />
      <path
         id="path4167"
         stroke-width="0.25"
         stroke="#000000"
         linecap="square"
         d="M6 2 l-4,4" />
      <path
         id="path4169"
         stroke-width="0.25"
         stroke="#000000"
         linecap="square"
         d="M4 0 l-4,4" />
    </pattern>
    <symbol
       id="*Model_Space" />
    <symbol
       id="*Paper_Space" />
    <clipPath
       clipPathUnits="userSpaceOnUse"
       id="clipPath4468">
      <g
         id="g4470">
        <path
           style="fill:none;fill-opacity:1;stroke:#000000;stroke-linecap:round"
           d="m 75.61466,203.97665 0,-21.78277 52.80419,-52.80418 -52.80419,-52.80419 0,-21.552045 -29.840428,-0.196635 0,148.94319 z"
           id="path4472"
           inkscape:connector-curvature="0"
           sodipodi:nodetypes="cccccccc" />
        <path
           id="path4474"
           style="fill:none;fill-opacity:1;stroke:#000000;stroke-linecap:round"
           d="m 146.4712,204.17329 0,-18.23563 -38.49562,0 38.49562,-38.49561 -12.89454,-12.89454 -50.667749,50.66775 0,18.95803 z"
           inkscape:connector-curvature="0"
           sodipodi:nodetypes="cccccccc" />
        <path
           id="path4476"
           style="fill:none;fill-opacity:1;stroke:#000000;stroke-linecap:round"
           d="m 221.22074,129.11285 50.3323,0 0,18.23563 -32.09667,0 0,56.82481 -18.23563,0 z"
           inkscape:connector-curvature="0"
           sodipodi:nodetypes="ccccccc" />
        <path
           inkscape:connector-curvature="0"
           d="m 278.84729,89.45151 18.23563,0 0,114.72178 -18.23563,0 z"
           style="fill:none;fill-opacity:1;stroke:#000000;stroke-linecap:round"
           id="path4478"
           sodipodi:nodetypes="ccccc" />
        <path
           id="path4480"
           style="fill:none;fill-opacity:1;stroke:#000000;stroke-linecap:round"
           d="m 172.00108,129.11285 33.1912,0 0,18.23563 -33.1912,0 0,38.58918 41.92541,0 0,18.23563 -60.16104,0 0,-104.6223 18.23563,0 z"
           inkscape:connector-curvature="0"
           sodipodi:nodetypes="ccccccccccc" />
      </g>
    </clipPath>
  </defs>
  <sodipodi:namedview
     id="base"
     pagecolor="#1e1e1e"
     bordercolor="#666666"
     borderopacity="1.0"
     inkscape:pageopacity="0"
     inkscape:pageshadow="2"
     inkscape:zoom="1.979899"
     inkscape:cx="100.63386"
     inkscape:cy="63.6458"
     inkscape:document-units="px"
     inkscape:current-layer="layer1"
     showgrid="true"
     showborder="true"
     showguides="false"
     inkscape:guide-bbox="true"
     units="in"
     inkscape:measure-start="390.929,781.858"
     inkscape:measure-end="297.143,794.286"
     inkscape:window-width="1301"
     inkscape:window-height="744"
     inkscape:window-x="65"
     inkscape:window-y="24"
     inkscape:window-maximized="1"
     fit-margin-top="0"
     fit-margin-left="0"
     fit-margin-right="0"
     fit-margin-bottom="0">
    <inkscape:grid
       type="xygrid"
       id="grid5303" />
  </sodipodi:namedview>
  <metadata
     id="metadata7">
    <rdf:RDF>
      <cc:Work
         rdf:about="">
        <dc:format>image/svg+xml</dc:format>
        <dc:type
           rdf:resource="http://purl.org/dc/dcmitype/StillImage" />
        <dc:title />
      </cc:Work>
    </rdf:RDF>
  </metadata>
  <g
     inkscape:label="Layer 1"
     inkscape:groupmode="layer"
     id="layer1"
     transform="translate(-109.267,-353.07888)">
    <path
       style="fill:#202020;fill-opacity:0.94117647;stroke:#f7a400;stroke-width:2;stroke-linecap:round;stroke-linejoin:round;stroke-miterlimit:4;stroke-dasharray:none;stroke-opacity:1"
       d="m 114.67466,363.29497 96.46463,88.98201 -34.72214,0.63708 -41.99643,-38.00915 5.35714,32.57922 -24.53143,0.35714 z m 62.49694,88.88021 33.65066,0.27994 c -31.35186,29.39721 -63.95222,58.75641 -94.5556,87.83964 l -0.66309,-76.99305 24.17429,0 -5.35715,30.71093 z"
       id="path4588"
       inkscape:connector-curvature="0"
       sodipodi:nodetypes="cccccccccccccc" />
    <path
       id="path4590"
       style="fill:#5eab98;fill-opacity:1;stroke:#1e1e1e;stroke-width:2.8125;stroke-linecap:round;stroke-miterlimit:4;stroke-dasharray:none;stroke-opacity:1"
       d="m 239.9048,546.81789 0,-23.65756 -49.94142,0 49.94142,-49.94139 -16.72846,-16.72842 -65.7326,65.73262 0,24.59475 z"
       inkscape:connector-curvature="0"
       sodipodi:nodetypes="cccccccc" />
    <path
       id="path4592"
       style="fill:#5eab98;fill-opacity:1;stroke:#1e1e1e;stroke-width:2.8125;stroke-linecap:round;stroke-miterlimit:4;stroke-dasharray:none;stroke-opacity:1"
       d="m 320.59765,466.67433 53.8194,0.33681 -0.12204,19.49905 -34.32037,-0.21479 -0.38027,60.76172 -19.49903,-0.12203 z"
       inkscape:connector-curvature="0"
       sodipodi:nodetypes="ccccccc" />
    <path
       inkscape:connector-curvature="0"
       d="m 381.86513,424.43571 19.49942,0 0,122.6723 -19.49942,0 z"
       style="fill:#5eab98;fill-opacity:1;stroke:#1e1e1e;stroke-width:2.8125;stroke-linecap:round;stroke-miterlimit:4;stroke-dasharray:none;stroke-opacity:1"
       id="path4594"
       sodipodi:nodetypes="ccccc" />
    <path
       id="path4596"
       style="fill:#5eab98;fill-opacity:1;stroke:#1e1e1e;stroke-width:2.8125;stroke-linecap:round;stroke-miterlimit:4;stroke-dasharray:none;stroke-opacity:1"
       d="m 267.61422,466.84568 35.49144,0 0,19.49942 -35.49144,0 0,41.2635 44.83094,0 0,19.49941 -64.33034,0 0,-111.8729 19.4994,0 z"
       inkscape:connector-curvature="0"
       sodipodi:nodetypes="ccccccccccc" />
    <path
       style="fill:none;fill-rule:evenodd;stroke:#f7a400;stroke-width:2.35117936;stroke-linecap:butt;stroke-linejoin:miter;stroke-miterlimit:4;stroke-dasharray:none;stroke-opacity:1"
       d="m 124.43502,447.32826 0,-58.44945 69.37698,62.57145"
       id="path5428"
       inkscape:connector-curvature="0"
       sodipodi:nodetypes="ccc" />
    <path
       style="fill:none;fill-rule:evenodd;stroke:#f7a400;stroke-width:2.15056634;stroke-linecap:butt;stroke-linejoin:miter;stroke-miterlimit:4;stroke-dasharray:none;stroke-opacity:1"
       d="m 126.54128,462.9175 1.30665,55.4346 64.3178,-67.71148"
       id="path5428-2"
       inkscape:connector-curvature="0"
       sodipodi:nodetypes="ccc" />
  </g>
</svg>
