<?xml version="1.0" encoding="UTF-8" standalone="no"?>
<!-- Created with Inkscape (http://www.inkscape.org/) -->

<svg
   xmlns:dc="http://purl.org/dc/elements/1.1/"
   xmlns:cc="http://creativecommons.org/ns#"
   xmlns:rdf="http://www.w3.org/1999/02/22-rdf-syntax-ns#"
   xmlns:svg="http://www.w3.org/2000/svg"
   xmlns="http://www.w3.org/2000/svg"
   xmlns:sodipodi="http://sodipodi.sourceforge.net/DTD/sodipodi-0.dtd"
   xmlns:inkscape="http://www.inkscape.org/namespaces/inkscape"
   width="56.473442mm"
   height="66.16713mm"
   viewBox="0 0 200.10275 234.45046"
   id="svg2"
   version="1.1"
   inkscape:version="0.91 r13725"
   sodipodi:docname="secure.svg">
  <defs
     id="defs4" />
  <sodipodi:namedview
     id="base"
     pagecolor="#ffffff"
     bordercolor="#666666"
     borderopacity="1.0"
     inkscape:pageopacity="0.0"
     inkscape:pageshadow="2"
     inkscape:zoom="0.49497475"
     inkscape:cx="-50.61275"
     inkscape:cy="244.25281"
     inkscape:document-units="px"
     inkscape:current-layer="layer1"
     showgrid="false"
     inkscape:window-width="1309"
     inkscape:window-height="747"
     inkscape:window-x="57"
     inkscape:window-y="21"
     inkscape:window-maximized="1"
     fit-margin-top="0"
     fit-margin-left="0"
     fit-margin-right="0"
     fit-margin-bottom="0" />
  <metadata
     id="metadata7">
    <rdf:RDF>
      <cc:Work
         rdf:about="">
        <dc:format>image/svg+xml</dc:format>
        <dc:type
           rdf:resource="http://purl.org/dc/dcmitype/StillImage" />
        <dc:title />
      </cc:Work>
    </rdf:RDF>
  </metadata>
  <g
     inkscape:label="Layer 1"
     inkscape:groupmode="layer"
     id="layer1"
     transform="translate(-34.550238,-533.34684)">
    <path
       style="fill:#090909;fill-opacity:1"
       d="M 116.53114,759.99497 C 71.526638,738.39477 44.422968,712.1267 37.635588,683.53173 c -3.36049,-14.15748 -0.52739,-40.36437 7.00313,-64.78112 7.41143,-24.03055 6.15754,-37.41282 -4.48279,-47.84345 l -5.60569,-5.4952 12.14383,-13.71575 c 6.67911,-7.54366 12.77391,-14.4124 13.54399,-15.26387 1.1078,-1.22484 3.36243,-0.55271 10.79691,3.21863 12.49174,6.33679 24.39005,8.48351 35.698772,6.44087 8.20139,-1.48138 17.82235,-5.53865 24.34683,-10.26734 l 3.4186,-2.47766 6.6452,4.31559 c 17.35251,11.2692 35.85186,12.05893 56.03353,2.39204 5.15766,-2.47047 9.70008,-4.49933 10.09427,-4.50858 0.39418,-0.009 6.71612,6.75651 14.04875,15.03503 l 13.33206,15.05184 -5.48098,5.17212 c -9.20385,8.6852 -11.7268,22.55512 -7.072,38.87872 7.39148,25.92076 8.91163,33.23049 10.09847,48.55831 1.02448,13.231 0.92397,18.0426 -0.51857,24.82464 -5.90754,27.77433 -32.93781,54.35631 -77.49918,76.21391 -9.55089,4.68477 -18.27199,8.51734 -19.38021,8.51684 -1.10825,-6.3e-4 -9.32945,-3.51156 -18.26937,-7.80233 z m 32.31376,-5.01101 c 38.50449,-18.45563 66.45024,-43.27553 74.64536,-66.29595 4.96368,-13.9432 3.06551,-41.4413 -4.58941,-66.48549 -7.62574,-24.94872 -6.98082,-40.7104 2.12664,-51.9757 2.01183,-2.48846 3.65785,-4.87212 3.65785,-5.29702 0,-0.95453 -17.71699,-21.43371 -18.54281,-21.43371 -0.32786,0 -3.56284,1.37582 -7.1888,3.05737 -19.55175,9.06716 -39.25399,8.68755 -57.45152,-1.10694 l -7.53772,-4.05703 -4.34051,2.91717 c -8.90448,5.98453 -17.19336,8.23617 -30.597562,8.31169 -10.75972,0.0606 -13.85557,-0.41725 -22.19945,-3.42669 -5.33285,-1.92342 -10.00792,-3.99178 -10.38908,-4.59636 -1.63058,-2.58632 -4.55529,-0.48794 -13.14687,9.43242 -7.72697,8.92206 -8.89146,10.84214 -7.61925,12.56337 10.34805,14.00054 12.67618,27.22516 7.80199,44.31821 -7.18257,25.18822 -8.88998,33.26946 -10.0796,47.70775 -1.53745,18.65963 -0.5862,24.7125 5.98616,38.09088 3.66324,7.45667 7.00652,11.6289 17.70355,22.09292 15.04706,14.71929 28.51619,23.95975 51.284272,35.18338 8.57489,4.22704 15.80159,7.68552 16.05935,7.68552 0.25775,0 6.74559,-3.00861 14.41741,-6.68579 z m -29.81309,-5.03904 C 82.564428,731.86267 57.281728,709.23821 49.643618,687.85226 c -4.90551,-13.73489 -2.73946,-42.12532 5.07737,-66.54877 7.10822,-22.2095 6.39134,-39.48131 -2.16481,-52.15569 l -3.19849,-4.73796 7.21913,-8.06061 c 5.19657,-5.80234 7.77549,-7.82532 9.20512,-7.22078 24.02267,10.1585 43.851592,10.34312 62.240602,0.5795 l 6.6385,-3.52469 6.56428,3.45841 c 11.06241,5.82828 19.9181,7.72872 32.7468,7.02749 10.45807,-0.57165 14.74664,-1.67228 29.57375,-7.58994 1.4203,-0.56685 4.00634,1.51841 9.01278,7.26747 l 7.02097,8.06241 -3.64492,5.63416 c -7.95178,12.29153 -8.19857,29.39751 -0.78111,54.14063 5.28334,17.62413 7.54263,33.9876 6.79868,49.24129 -0.47877,9.81679 -1.05298,11.90384 -5.92862,21.5494 -9.75528,19.29899 -33.46783,39.04732 -65.97653,54.94677 -7.69826,3.76509 -14.7314,6.8451 -15.6292,6.84447 -0.89783,-6.3e-4 -7.82156,-3.07004 -15.38611,-6.8209 z"
       id="path4172"
       inkscape:connector-curvature="0" />
    <path
       style="fill:#ff6600;fill-opacity:1"
       d="m 119.91533,717.17862 c -30.918703,-13.59646 -49.539293,-30.13118 -54.202313,-48.1306 -2.3087,-8.91159 -0.36232,-25.40779 4.81124,-40.77718 5.09176,-15.12628 4.23032,-23.5499 -3.07973,-30.11558 l -3.85118,-3.459 8.34297,-8.63353 c 4.58864,-4.74844 8.77585,-9.07204 9.30491,-9.60801 0.76107,-0.77098 2.31003,-0.34791 7.41762,2.02601 8.58199,3.98875 16.756293,5.34003 24.525533,4.05427 5.63447,-0.93248 12.2442,-3.48637 16.7266,-6.46289 l 2.34863,-1.55959 4.56534,2.71649 c 11.92141,7.09352 24.63071,7.59063 38.4958,1.5057 3.54337,-1.55506 6.66408,-2.83215 6.93489,-2.83797 0.27081,-0.006 4.61407,4.25296 9.65168,9.46395 l 9.15931,9.47455 -3.76551,3.25564 c -6.32317,5.467 -8.05647,14.19757 -4.85856,24.47264 5.07805,16.3161 6.12242,20.91728 6.93779,30.56555 0.70383,8.32839 0.63477,11.3571 -0.35627,15.62613 -4.05856,17.48285 -22.62871,34.21517 -53.24298,47.97369 -6.56159,2.94884 -12.55311,5.36134 -13.31447,5.361 -0.76138,0 -6.40945,-2.21037 -12.5513,-4.91127 z m 22.19999,-3.1542 c 26.45311,-11.6171 45.65222,-27.2403 51.28237,-41.73073 3.41012,-8.77669 2.10605,-26.08567 -3.15299,-41.85001 -5.23898,-15.70424 -4.79591,-25.6256 1.46103,-32.71666 1.38216,-1.56639 2.51299,-3.06681 2.51299,-3.33426 0,-0.60085 -12.17181,-13.49168 -12.73915,-13.49168 -0.22525,0 -2.44773,0.86602 -4.93881,1.92449 -13.43232,5.70742 -26.96802,5.46847 -39.46997,-0.69677 l -5.17851,-2.55375 -2.98199,1.83625 c -6.1175,3.76702 -11.81208,5.18434 -21.02094,5.23188 -7.39207,0.0381 -9.518963,-0.26264 -15.251323,-2.15697 -3.66374,-1.21072 -6.87557,-2.51267 -7.13744,-2.89322 -1.12023,-1.62799 -3.12954,-0.30715 -9.03208,5.93733 -5.30853,5.61609 -6.10855,6.82471 -5.23453,7.90815 7.10925,8.81279 8.70871,17.13717 5.36008,27.89658 -4.93452,15.85499 -6.10754,20.94182 -6.92483,30.03015 -1.05624,11.74551 -0.40272,15.55555 4.11258,23.9767 2.5167,4.69368 4.81358,7.31993 12.16257,13.90665 10.33755,9.26522 19.591023,15.08172 35.232993,22.14653 5.89107,2.66078 10.85591,4.83775 11.03299,4.83775 0.17708,0 4.63431,-1.89378 9.90496,-4.20841 z m -20.482,-3.17192 C 96.579737,699.47043 79.210187,685.22924 73.962697,671.76762 c -3.37015,-8.64557 -1.88205,-26.51624 3.48822,-41.88984 4.88344,-13.98001 4.39094,-24.85193 -1.48725,-32.82996 l -2.1974,-2.98236 4.95963,-5.07383 c 3.57012,-3.65235 5.34187,-4.92574 6.32405,-4.5452 16.503893,6.39437 30.126623,6.51058 42.760133,0.36476 l 4.56074,-2.21864 4.50974,2.17693 c 7.60003,3.66867 13.68401,4.86492 22.4975,4.42353 7.18483,-0.35984 10.13114,-1.05264 20.31756,-4.77757 0.97577,-0.35681 2.75241,0.95578 6.19191,4.57458 l 4.8235,5.07497 -2.50411,3.54649 c -5.46298,7.73703 -5.63253,18.50458 -0.53663,34.0794 3.62972,11.0937 5.18188,21.39386 4.67078,30.99546 -0.32893,6.17928 -0.72341,7.493 -4.07304,13.5645 -6.70201,12.14793 -22.99285,24.57873 -45.32677,34.58683 -5.28881,2.36999 -10.12067,4.30871 -10.73748,4.30832 -0.61682,0 -5.37351,-1.93244 -10.57046,-4.29349 z"
       id="path4172-3"
       inkscape:connector-curvature="0" />
  </g>
</svg>
