<?xml version="1.0" encoding="UTF-8" standalone="no"?>
<!-- Created with Inkscape (http://www.inkscape.org/) -->

<svg
   xmlns:dc="http://purl.org/dc/elements/1.1/"
   xmlns:cc="http://creativecommons.org/ns#"
   xmlns:rdf="http://www.w3.org/1999/02/22-rdf-syntax-ns#"
   xmlns:svg="http://www.w3.org/2000/svg"
   xmlns="http://www.w3.org/2000/svg"
   xmlns:sodipodi="http://sodipodi.sourceforge.net/DTD/sodipodi-0.dtd"
   xmlns:inkscape="http://www.inkscape.org/namespaces/inkscape"
   width="101.48493mm"
   height="401.89847mm"
   viewBox="0 0 359.59228 1424.0497"
   id="svg4162"
   version="1.1"
   inkscape:version="0.91 r13725"
   sodipodi:docname="tronStuff.svg">
  <defs
     id="defs4164" />
  <sodipodi:namedview
     id="base"
     pagecolor="#ffffff"
     bordercolor="#666666"
     borderopacity="1.0"
     inkscape:pageopacity="0.0"
     inkscape:pageshadow="2"
     inkscape:zoom="2.2983748"
     inkscape:cx="184.11709"
     inkscape:cy="1328.8744"
     inkscape:document-units="px"
     inkscape:current-layer="layer4"
     showgrid="false"
     inkscape:window-width="1301"
     inkscape:window-height="744"
     inkscape:window-x="65"
     inkscape:window-y="24"
     inkscape:window-maximized="1"
     showguides="false"
     fit-margin-top="0"
     fit-margin-left="0"
     fit-margin-right="0"
     fit-margin-bottom="0" />
  <metadata
     id="metadata4167">
    <rdf:RDF>
      <cc:Work
         rdf:about="">
        <dc:format>image/svg+xml</dc:format>
        <dc:type
           rdf:resource="http://purl.org/dc/dcmitype/StillImage" />
        <dc:title></dc:title>
      </cc:Work>
    </rdf:RDF>
  </metadata>
  <g
     inkscape:label="Layer 1"
     inkscape:groupmode="layer"
     id="layer1"
     transform="translate(44.34276,347.3663)" />
  <g
     inkscape:groupmode="layer"
     id="layer2"
     inkscape:label="Layer 2"
     transform="translate(44.34276,347.3663)">
    <path
       style="fill:none;fill-rule:evenodd;stroke:#5eab98;stroke-width:2;stroke-linecap:butt;stroke-linejoin:miter;stroke-miterlimit:4;stroke-dasharray:none;stroke-opacity:1"
       d="m 299.12409,669.87567 -74.78103,0 -7.35551,391.06793 -164.976238,-5.114 0,-917.13277 -15.603394,0 0,214.98009 -55.478732,0 1.73371,-32.9405 36.407918,0 0,-324.2038408 0,-342.1585192"
       id="path4738"
       inkscape:connector-curvature="0"
       sodipodi:nodetypes="cccccccccccc" />
    <path
       style="fill:none;fill-rule:evenodd;stroke:#4caf50;stroke-width:2;stroke-linecap:butt;stroke-linejoin:miter;stroke-miterlimit:4;stroke-dasharray:none;stroke-opacity:1"
       d="m 312.60919,582.83546 -136.07694,1.22592 -2.45184,479.33412 -63.12295,-0.631 0,-107.49008 -36.407913,0 0,-854.71922 -46.810181,0 0,-88.419227 17.337104,0 0,26.005656 26.005656,0 0,-46.8101809 0,-338.6977481"
       id="path4741"
       inkscape:connector-curvature="0"
       sodipodi:nodetypes="cccccccccccccc" />
  </g>
  <g
     inkscape:groupmode="layer"
     id="layer3"
     inkscape:label="Layer 3"
     transform="translate(44.34276,347.3663)">
    <path
       style="fill:none;fill-rule:evenodd;stroke:#f7a400;stroke-width:2;stroke-linecap:butt;stroke-linejoin:miter;stroke-miterlimit:4;stroke-dasharray:none;stroke-opacity:1"
       d="m 71.800252,1074.0952 0,-93.62037 27.739367,0 0,93.62037 54.926101,1.5595 1.22592,-469.52679 159.55566,-0.35574"
       id="path4743"
       inkscape:connector-curvature="0"
       sodipodi:nodetypes="ccccccc" />
    <path
       inkscape:connector-curvature="0"
       id="path4312"
       d="m 71.800252,1074.0952 0,-93.62037 27.739367,0 0,93.62037 54.926101,1.5595 1.22592,-469.52679"
       style="fill:none;fill-rule:evenodd;stroke:#f7a400;stroke-width:2;stroke-linecap:butt;stroke-linejoin:miter;stroke-miterlimit:4;stroke-dasharray:none;stroke-opacity:1"
       sodipodi:nodetypes="cccccc" />
  </g>
  <g
     inkscape:groupmode="layer"
     id="layer4"
     inkscape:label="Layer 4"
     transform="translate(44.34276,347.3663)">
    <path
       style="fill:none;fill-rule:evenodd;stroke:#f7a400;stroke-width:2;stroke-linecap:butt;stroke-linejoin:miter;stroke-miterlimit:4;stroke-dasharray:none;stroke-opacity:0.94117647"
       d="m 38.141629,1067.9656 0,-162.96878 -27.739367,0 0,-57.21244 24.271946,0 0,-473.30294 -78.016968,0 0,-90.15294 52.0113119,0 0,-294.730762 0,-172.499998 0,-162.7237"
       id="path4746"
       inkscape:connector-curvature="0" />
  </g>
  <g
     inkscape:groupmode="layer"
     id="layer5"
     inkscape:label="Layer 5"
     transform="translate(44.34276,347.3663)" />
</svg>
