<?xml version="1.0" encoding="utf-8"?>
<!-- Generator: Adobe Illustrator 16.0.4, SVG Export Plug-In . SVG Version: 6.00 Build 0)  -->
<!DOCTYPE svg PUBLIC "-//W3C//DTD SVG 1.1//EN" "http://www.w3.org/Graphics/SVG/1.1/DTD/svg11.dtd">
<svg version="1.1" id="Layer_1" xmlns="http://www.w3.org/2000/svg" xmlns:xlink="http://www.w3.org/1999/xlink" x="0px" y="0px"
	 width="1920px" height="1080px" viewBox="0 0 1920 1080" enable-background="new 0 0 1920 1080" xml:space="preserve">
<g>
	<polygon fill="#202020" points="916.181,538.875 842.75,465.443 842.75,435.75 801.75,435.75 801.75,642 842.75,642 
		842.75,612.307 	"/>
	<g>
		<rect x="1092" y="512" fill="#5BAC98" width="21.334" height="131.333"/>
		<g>
			<path d="M1112.334,513v129.333H1093V513H1112.334 M1114.334,511H1091v133.333h23.334V511L1114.334,511z"/>
		</g>
	</g>
	<g>
		<polygon fill="#5BAC98" points="1026,643.333 1026,557.333 1084.666,557.333 1084.666,578.667 1047.334,578.667 1047.334,643.333 
					"/>
		<g>
			<path d="M1083.666,558.333v19.334h-35.332h-2v2v62.666H1027v-62.666V562v-3.667H1083.666 M1085.666,556.333H1025V562v17.667
				v64.666h23.334v-64.666h37.332V556.333L1085.666,556.333z"/>
		</g>
	</g>
	<g>
		<polygon fill="#5BAC98" points="950,643.333 950,522.75 971.334,522.75 971.334,557.333 1008.667,557.333 1008.667,578.667 
			971.334,578.667 971.334,621.999 1019,621.999 1019,643.333 		"/>
		<g>
			<path d="M970.334,523.75v32.583v2h2h35.333v19.334h-35.333h-2v2v41.332v2h2H1018v19.334h-45.666h-21.335L951,620.999V523.75
				H970.334 M972.334,521.75H949v99.249h-0.001v23.334H949h23.334H1020v-23.334h-47.666v-41.332h37.333v-23.334h-37.333V521.75
				L972.334,521.75z"/>
		</g>
	</g>
	<g>
		<polygon fill="#5BAC98" points="853,643.333 853,616.414 923.376,546.039 941.995,564.659 889.655,617 942,617 942,643.333 		"/>
		<g>
			<path d="M923.376,547.453l17.204,17.206l-49.925,49.927L887.24,618h4.829H941v24.333h-87v-25.505L923.376,547.453
				 M923.376,544.625L852,616v28.333h91V616h-50.931l51.34-51.341L923.376,544.625L923.376,544.625z"/>
		</g>
	</g>
	<g>
		<polygon fill="#5BAC98" points="812.5,631.666 812.5,551.5 832.75,551.5 832.75,572.38 884.422,520.709 903.04,539.329 
			832.75,609.621 832.75,631.666 		"/>
		<g>
			<path d="M884.422,522.124l17.204,17.206l-69.29,69.292l-0.586,0.586v0.828v20.631H813.5V552.5h18.25v17.466v4.828l3.414-3.414
				L884.422,522.124 M884.422,519.295l-50.672,50.671V550.5H811.5v82.166h22.25v-22.631l70.704-70.706L884.422,519.295
				L884.422,519.295z"/>
		</g>
	</g>
	<g>
		<polygon fill="#5BAC98" points="812.5,539.5 812.5,446.667 832.75,446.667 832.75,468.88 878.041,514.169 859.42,532.79 
			832.75,506.119 832.75,539.5 		"/>
		<path d="M831.75,447.667v20.799v0.829l0.586,0.585l44.29,44.289l-17.206,17.207l-24.256-24.256l-3.414-3.415v4.829V538.5H813.5
			v-90.833H831.75 M833.75,445.667H811.5V540.5h22.25v-31.967l25.67,25.671l20.034-20.035l-45.705-45.703V445.667L833.75,445.667z"
			/>
	</g>
	<g>
		<path fill="#5BAC98" d="M980.703,548.982l8.729-22.728h3.24l9.302,22.728h-3.427l-2.65-6.883h-9.504l-2.495,6.883H980.703z
			 M987.262,539.649h7.704l-2.372-6.294c-0.723-1.912-1.261-3.483-1.611-4.713c-0.29,1.457-0.698,2.904-1.226,4.341L987.262,539.649
			z"/>
		<path fill="#5BAC98" d="M1004.376,548.982v-22.728h7.829c1.768,0,3.116,0.109,4.046,0.326c1.303,0.3,2.414,0.843,3.334,1.628
			c1.198,1.013,2.095,2.308,2.689,3.883c0.594,1.576,0.892,3.377,0.892,5.403c0,1.726-0.202,3.256-0.604,4.589
			c-0.403,1.333-0.92,2.436-1.551,3.31s-1.32,1.561-2.069,2.062c-0.75,0.502-1.654,0.881-2.713,1.14
			c-1.06,0.259-2.276,0.388-3.651,0.388H1004.376z M1007.384,546.301h4.853c1.498,0,2.674-0.14,3.526-0.419
			c0.854-0.279,1.532-0.672,2.039-1.179c0.713-0.713,1.269-1.672,1.667-2.875c0.397-1.204,0.597-2.664,0.597-4.38
			c0-2.377-0.391-4.204-1.171-5.48c-0.78-1.276-1.729-2.131-2.845-2.565c-0.806-0.31-2.104-0.465-3.891-0.465h-4.775V546.301z"/>
		<path fill="#5BAC98" d="M1027.212,548.982v-22.728h4.526l5.38,16.093c0.496,1.498,0.857,2.619,1.085,3.363
			c0.259-0.826,0.662-2.041,1.21-3.643l5.441-15.813h4.046v22.728h-2.898V529.96l-6.604,19.022h-2.713l-6.573-19.348v19.348
			H1027.212z"/>
		<path fill="#5BAC98" d="M1054.265,548.982v-22.728h3.008v22.728H1054.265z"/>
		<path fill="#5BAC98" d="M1062.543,548.982v-22.728h3.086l11.937,17.845v-17.845h2.884v22.728h-3.085l-11.938-17.859v17.859
			H1062.543z"/>
	</g>
</g>
</svg>
