<?xml version="1.0" encoding="UTF-8" standalone="no"?>
<!-- Generator: Adobe Illustrator 20.1.0, SVG Export Plug-In . SVG Version: 6.00 Build 0)  -->

<svg
   xmlns:dc="http://purl.org/dc/elements/1.1/"
   xmlns:cc="http://creativecommons.org/ns#"
   xmlns:rdf="http://www.w3.org/1999/02/22-rdf-syntax-ns#"
   xmlns:svg="http://www.w3.org/2000/svg"
   xmlns="http://www.w3.org/2000/svg"
   xmlns:sodipodi="http://sodipodi.sourceforge.net/DTD/sodipodi-0.dtd"
   xmlns:inkscape="http://www.inkscape.org/namespaces/inkscape"
   version="1.1"
   id="Layer_1"
   x="0px"
   y="0px"
   viewBox="0 0 840.64066 471.56567"
   xml:space="preserve"
   inkscape:version="0.91 r13725"
   sodipodi:docname="dctrl.svg"
   width="840.64056"
   height="471.56567"><metadata
     id="metadata3795"><rdf:RDF><cc:Work
         rdf:about=""><dc:format>image/svg+xml</dc:format><dc:type
           rdf:resource="http://purl.org/dc/dcmitype/StillImage" /><dc:title></dc:title></cc:Work></rdf:RDF></metadata><defs
     id="defs3793" /><sodipodi:namedview
     pagecolor="#ffffff"
     bordercolor="#666666"
     borderopacity="1"
     objecttolerance="10"
     gridtolerance="10"
     guidetolerance="10"
     inkscape:pageopacity="0"
     inkscape:pageshadow="2"
     inkscape:window-width="1301"
     inkscape:window-height="744"
     id="namedview3791"
     showgrid="false"
     inkscape:zoom="0.57307693"
     inkscape:cx="405.09051"
     inkscape:cy="278.47187"
     inkscape:window-x="65"
     inkscape:window-y="24"
     inkscape:window-maximized="1"
     inkscape:current-layer="Layer_1"
     fit-margin-top="0"
     fit-margin-left="0"
     fit-margin-right="0"
     fit-margin-bottom="0" /><path
     style="fill:#ff0000;fill-opacity:1;stroke:#4173bb;stroke-width:18.8939209;stroke-miterlimit:4;stroke-dasharray:none;stroke-opacity:1"
     d="m 266.33342,452.0474 c -11.52721,-1.01023 -23.53244,-3.89097 -31.1624,-7.47748 -12.56387,-5.90562 -17.92837,-12.43127 -17.92837,-21.80877 0,-13.72942 10.80967,-22.60997 33.62259,-27.62229 11.252,-2.47217 11.3101,-2.47696 29.81365,-2.45756 16.97163,0.0171 19.38599,0.17705 28.54609,1.88212 11.5351,2.14699 14.37364,3.58654 14.34214,7.27318 -0.0342,4.0615 -1.69117,4.7682 -7.13567,3.0447 -2.48033,-0.7851 -8.36493,-2.22592 -13.07683,-3.20175 -7.34731,-1.52153 -10.46004,-1.77141 -21.86064,-1.75501 -15.83925,0.0216 -24.43908,1.53563 -32.48566,5.71475 -7.9951,4.15237 -10.34857,8.07362 -10.34857,17.24231 0,7.58312 0.18937,8.06567 4.81043,12.23726 7.7147,6.96483 18.60037,9.74491 38.15795,9.74491 12.37206,0 22.05919,-1.24766 31.44945,-4.05061 8.43305,-2.51727 10.51223,-2.11484 10.51223,2.03451 0,3.97172 -2.7196,5.33116 -14.62659,7.31167 -15.07561,2.50748 -28.68522,3.1103 -42.6298,1.88806 z m 26.62651,-0.58811 c 10.29727,-0.74969 25.81689,-3.73821 27.7494,-5.34344 1.71816,-1.42722 1.8546,-5.64685 0.19754,-6.10226 -0.6628,-0.18297 -4.15288,0.54367 -7.75457,1.61317 -8.90078,2.64292 -19.07211,3.89368 -31.6632,3.89368 -19.91489,0 -32.42115,-3.32386 -39.99157,-10.62862 -3.98433,-3.84457 -4.29685,-4.71746 -4.30549,-12.02505 -0.004,-6.03555 0.6434,-8.71258 2.7782,-11.43928 3.38269,-4.31978 12.65126,-8.9955 21.17561,-10.68255 14.57818,-2.88513 36.44001,-1.95269 50.89468,2.17084 3.85666,1.1002 7.70061,1.8112 8.54212,1.57999 2.50448,-0.6881 1.79852,-5.38285 -0.99614,-6.6252 -5.95009,-2.64507 -23.66759,-4.8648 -38.83103,-4.8648 -19.44975,0 -33.02777,2.33176 -44.52782,7.64675 -12.07366,5.58016 -17.50802,12.37333 -17.50802,21.88591 0,12.94143 11.69075,22.29346 33.389,26.70957 12.72849,2.59055 25.87181,3.30201 40.85133,2.21129 z M 33.596829,450.99218 c -0.541592,-0.24111 -0.984658,-13.21033 -0.984658,-28.82135 0,-25.2764 0.256267,-28.42725 2.336306,-28.78214 3.746532,-0.63924 37.268706,-0.45926 50.353488,0.27036 39.148865,2.18221 57.015985,11.0043 57.159455,28.22305 0.13867,16.62099 -14.77772,25.44111 -48.218059,28.51177 -11.450556,1.05146 -58.581474,1.51679 -60.646532,0.59865 z m 60.312691,-1.21093 c 32.57309,-3.05375 46.64556,-11.23897 46.93167,-27.29769 0.27448,-15.40006 -13.12573,-23.78607 -43.631084,-27.30491 -6.676229,-0.77014 -16.520694,-1.08166 -35.795599,-1.13297 l -26.586875,-0.0713 -0.3856,27.57822 c -0.211556,15.16806 -0.06012,27.94759 0.322739,28.39914 1.053166,1.22023 45.6813,1.0911 59.144596,-0.1713 z m -41.778968,-5.73271 c -1.39732,-0.74862 -1.742242,-6.05597 -1.445374,-22.24517 l 0.390287,-21.2621 16.921775,-0.18642 c 35.45458,-0.39199 50.50422,4.37245 54.61941,17.29045 1.78384,5.5998 -0.14078,12.92674 -4.47047,17.02192 -4.05525,3.83525 -12.52114,7.05702 -22.39614,8.52291 -10.933355,1.62306 -41.084169,2.2167 -43.619123,0.85884 z m 33.610599,-0.54063 c 13.02194,-0.93915 23.163789,-3.49916 28.406749,-7.17026 5.68364,-3.97967 7.31984,-7.04825 7.36809,-13.81792 0.0601,-8.22193 -3.16684,-12.663 -11.93824,-16.43832 -9.26419,-3.9873 -18.953873,-5.21175 -41.244192,-5.21175 l -16.519849,0 0,21.23103 c 0,11.67697 0.4432,21.42794 0.984716,21.66867 1.51584,0.67392 22.256957,0.50939 32.942726,-0.26152 z m 347.445209,7.13423 c -1.31521,-0.58471 -1.77241,-7.10624 -1.77241,-25.28025 l 0,-24.49223 -21.12182,0 c -14.45848,0 -21.68078,-0.24839 -22.89405,-0.78791 -2.17687,-0.96777 -2.30817,-4.10654 -0.24372,-5.82155 1.46794,-1.21932 3.63921,-1.27007 54.35511,-1.27007 39.1177,0 53.28617,0.20432 54.59873,0.78795 2.29305,1.0194 2.29305,5.28426 0,6.30367 -1.21338,0.53948 -8.43564,0.78791 -22.89426,0.78791 l -21.1217,0 0,24.24154 c 0,13.33285 -0.40365,24.70894 -0.89654,25.28017 -1.09876,1.2729 -15.26665,1.47011 -18.00957,0.25054 z m 17.42912,-25.14896 0.73842,-24.9518 21.35617,-0.18278 c 22.62802,-0.19352 23.62889,-0.34027 23.67099,-3.46122 0.0463,-3.2417 -0.10179,-3.25035 -54.62792,-3.25035 -54.5262,0 -54.67177,0.01 -54.62803,3.25035 0.0403,3.12099 1.043,3.26724 23.671,3.46122 l 21.35623,0.18278 0.37241,24.29523 c 0.20512,13.36243 0.69561,24.68007 1.09133,25.15053 0.4974,0.59085 3.12318,0.79394 8.49066,0.65668 l 7.77096,-0.19826 0.73844,-24.95189 z m 119.21262,25.52771 c -0.57647,-0.25675 -1.04911,-13.23897 -1.04911,-28.85002 0,-25.27635 0.25627,-28.42722 2.33638,-28.78218 3.95575,-0.67479 40.92177,-0.44049 50.14983,0.31786 21.72651,1.78555 31.70534,6.95039 31.70534,16.41011 0,3.84444 -0.71382,5.27577 -3.94762,7.91713 -2.17112,1.77336 -6.15911,3.83207 -8.86223,4.57466 -2.70303,0.74269 -4.91467,1.42483 -4.91467,1.51591 0,0.0909 2.68659,1.45919 5.97041,3.04041 6.7809,3.26531 28.66678,21.89081 27.42011,23.33527 -0.86228,0.99887 -14.97122,1.33328 -18.03782,0.42743 -0.89827,-0.26509 -6.40199,-4.67032 -12.23036,-9.78888 -12.47121,-10.95204 -16.80631,-13.03064 -28.52014,-13.67419 -4.30964,-0.23665 -10.8268,-0.33402 -14.48243,-0.2153 l -6.64673,0.21465 -0.73842,11.8193 -0.73837,11.81931 -8.18243,0.19244 c -4.50035,0.10598 -8.65446,-0.0172 -9.23151,-0.27402 z m 16.34014,-12.22228 0.40298,-11.64638 3.82113,-0.42645 c 2.10161,-0.23399 8.73843,-0.26093 14.74857,-0.059 17.98704,0.60478 20.05202,1.50246 36.57187,15.89864 l 9.04192,7.87954 8.49301,0.19654 c 5.5371,0.12815 8.49305,-0.0584 8.49305,-0.53675 0,-1.88705 -21.41224,-19.25126 -27.37456,-22.19928 -6.35967,-3.1446 -8.09984,-4.71079 -5.23375,-4.71079 2.93494,0 11.01125,-3.69244 13.58447,-6.2108 3.42206,-3.34915 3.67621,-10.60288 0.49006,-13.9926 -6.78348,-7.21738 -21.84128,-9.56586 -59.01131,-9.20366 l -19.20163,0.18718 -0.38489,28.4337 -0.38495,28.4337 7.77019,-0.19803 7.77023,-0.19827 0.40304,-11.64635 z m 0.98381,-19.08249 c -0.40438,-0.46868 -0.54964,-4.97497 -0.32264,-10.01358 l 0.41301,-9.16116 15.17606,-0.18738 c 24.54113,-0.30324 31.94362,2.20487 31.01476,10.50711 -0.42782,3.81892 -1.07018,4.67783 -4.79509,6.40634 -5.51223,2.55773 -11.70479,3.29283 -27.77946,3.2973 -9.27658,10e-4 -13.18006,-0.23903 -13.70614,-0.84876 z m 33.27233,-0.66203 c 7.61256,-1.16566 11.86748,-4.39255 11.86748,-9.00021 0,-2.81277 -0.7733,-4.19116 -3.08448,-5.49727 -5.31776,-3.00546 -10.19444,-3.68695 -26.38304,-3.68695 l -14.84377,0 0,9.08336 c 0,4.99585 0.44322,9.28039 0.98471,9.52111 1.65975,0.73786 26.02118,0.41234 31.4591,-0.42011 z m 128.06161,31.93815 c -0.54159,-0.2411 -0.98473,-13.21032 -0.98473,-28.82137 0,-31.38521 -0.72567,-29.18074 9.60076,-29.18074 10.28121,0 9.60079,-1.8148 9.60079,25.60848 0,22.01903 0.26311,24.8562 2.33648,25.20997 1.28499,0.21904 15.17189,0.39821 30.85977,0.39821 31.08248,0 30.31672,-0.0971 30.31672,3.86218 0,3.30214 -0.73448,3.36075 -42.14502,3.36075 -21.23003,0 -39.04316,-0.19636 -39.58477,-0.43791 z m 79.61677,-1.80845 c 2.27556,-4.03059 2.67439,-3.97492 -29.87605,-4.16928 -22.40123,-0.13359 -30.13332,-0.39042 -31.34981,-1.04248 -1.08881,-0.5832 -1.74092,-8.86432 -2.00212,-25.43093 l -0.38756,-24.56605 -7.3853,0 -7.38532,0 -0.38562,27.57818 c -0.21249,15.16811 -0.0603,27.94768 0.32265,28.39916 0.54161,0.62778 9.75056,0.82103 39.13,0.82103 l 38.42148,0 0.89746,-1.58963 z M 28.47637,366.5937 C 27.106515,365.98475 26.709103,325.53653 26.726542,188.48335 26.730383,90.956005 27.277526,10.791005 27.923158,10.338944 28.859551,9.6833453 110.25696,9.550413 430.02569,9.6823104 l 400.92854,0.165351 0.37245,177.8774886 c 0.27361,130.94434 -0.0601,178.11211 -1.28877,178.76701 -2.31272,1.23877 -798.775831,1.33971 -801.561117,0.10152 z m 801.00088,-178.14321 0,-177.946196 -400.27892,0 -400.27876,0 -0.378129,177.289606 c -0.207983,97.50928 -0.06011,177.65947 0.323411,178.11158 0.561048,0.65601 81.467798,0.78853 400.657198,0.65659 l 399.95493,-0.16518 0,-177.94624 z M 45.112589,358.68264 C 44.726316,358.23016 44.58035,281.33059 44.78839,187.7939 l 0.378168,-170.066702 384.031292,0 384.03135,0 0,170.723292 0,170.72337 -383.70742,0.16535 c -306.19122,0.13233 -383.849314,-6.5e-4 -384.409633,-0.65663 z m 767.012131,-170.39632 0.37235,-170.230795 -383.29565,0 -383.295542,0 0,169.957205 c 0,93.47651 0.443852,170.15486 0.9875,170.39628 0.543609,0.24114 172.858662,0.3648 382.923602,0.27396 l 381.93606,-0.16533 0.37164,-170.23089 z m -419.9846,149.30407 c -6.3682,-1.28135 -14.93104,-5.37473 -16.95982,-8.10757 -2.71879,-3.66232 -1.106,-9.48455 3.48087,-12.56579 17.25963,-11.59449 57.63978,-6.08546 57.66859,7.86768 0.004,4.61881 -5.30912,8.99355 -14.06579,11.5697 -7.24117,2.13032 -22.55603,2.75868 -30.12385,1.23598 z m 24.03802,-0.45294 c 7.08272,-1.18511 15.12614,-5.22102 17.50631,-8.7842 8.5436,-12.78959 -26.17932,-22.53173 -48.45669,-13.59541 -7.28462,2.92219 -9.94144,5.58069 -9.94144,9.94781 0,5.19734 6.02681,9.46799 16.98596,12.03647 5.11583,1.19897 17.84484,1.40945 23.90586,0.39554 z m 89.1321,0.62175 c -19.7212,-3.4989 -26.41623,-14.66181 -13.10076,-21.8432 13.42749,-7.24169 38.56143,-6.84952 50.63962,0.7903 5.90564,3.73544 7.02758,9.78184 2.54047,13.6919 -3.31384,2.88775 -11.8028,6.51778 -17.48955,7.47897 -4.65871,0.78737 -17.87586,0.71839 -22.58978,-0.11811 z m 24.75521,-1.1754 c 14.61553,-3.33213 20.88628,-11.44688 13.69079,-17.71703 -11.08216,-9.65703 -40.64262,-10.13146 -52.87966,-0.84863 -8.97778,6.81022 -2.55543,15.69748 13.65101,18.89059 6.59895,1.30016 19.10783,1.14096 25.53786,-0.32471 z m 85.2405,0.81678 c -15.85627,-3.70962 -22.62127,-11.60859 -15.65693,-18.28137 6.49713,-6.22508 21.10893,-9.52776 35.90981,-8.11664 13.29488,1.26753 24.78045,7.61647 24.78045,13.69805 0,4.84244 -7.60778,10.18524 -17.79206,12.49495 -7.02759,1.5938 -20.86006,1.69784 -27.24127,0.20494 z m 30.45343,-1.88545 c 8.56805,-2.6907 12.38754,-6.1744 12.35382,-11.26757 -0.0244,-3.44311 -0.70356,-4.4922 -4.45153,-6.86302 -10.81585,-6.84136 -30.83196,-8.1016 -44.72228,-2.81597 -15.76219,5.99788 -13.2388,17.11314 4.95084,21.80756 4.8408,1.24929 7.55128,1.47279 15.7532,1.29893 8.15915,-0.17359 11.00154,-0.55393 16.11595,-2.15993 z m 81.66977,2.07501 c -6.36828,-1.28135 -14.93118,-5.37476 -16.95996,-8.1076 -2.71881,-3.6623 -1.1061,-9.48453 3.48093,-12.56577 17.25957,-11.59451 57.63982,-6.08547 57.66859,7.86769 0.004,4.61881 -5.30922,8.99353 -14.06577,11.56969 -7.24118,2.1303 -22.55606,2.7587 -30.12379,1.23599 z m 24.03778,-0.45297 c 7.08294,-1.18511 15.12616,-5.22102 17.50651,-8.78418 8.5435,-12.78961 -26.17938,-22.53172 -48.45672,-13.59545 -7.2847,2.92217 -9.94159,5.58074 -9.94159,9.94786 0,5.19733 6.02689,9.46801 16.98604,12.03643 5.11589,1.19896 17.84486,1.40945 23.90576,0.39558 z m -627.27807,-2.3284 c -16.94361,-0.67721 -31.863035,-1.72324 -33.571974,-2.35375 -1.47668,-0.54492 -1.872325,-8.34403 -1.854425,-36.56262 0.0038,-19.72839 0.546279,-36.23652 1.186264,-36.68448 0.895523,-0.62684 18.171325,-0.85394 74.937345,-0.98496 l 73.77368,-0.17017 0,-15.43086 0,-15.43071 -73.77368,-0.17015 c -56.76602,-0.1308 -74.041822,-0.35822 -74.937345,-0.98492 -1.511942,-1.05841 -1.52602,-157.49512 -0.01729,-158.552963 2.976867,-2.08302 56.109125,-3.431272 87.428055,-2.218538 91.19424,3.531285 169.60792,19.655185 228.97765,47.083851 40.52241,18.7212 65.41963,39.88728 77.15918,65.5958 2.86234,6.26815 3.29002,9.21919 3.23544,22.32538 -0.0534,13.80213 -0.40233,15.81039 -3.99929,23.3243 -17.21534,35.9574 -67.40431,66.94379 -141.55374,87.39455 -29.57897,8.15799 -72.58148,16.05318 -106.95306,19.63631 -23.74685,2.47549 -50.75624,3.93794 -77.5449,4.19852 -14.2165,0.13875 -28.83921,0.13233 -32.49491,-0.0171 z m 52.43501,-0.94762 c 49.96583,-1.90279 90.27838,-6.76165 132.93403,-16.02253 42.81404,-9.29526 77.47974,-20.98565 106.05224,-35.76446 37.76829,-19.5351 60.61455,-41.66228 68.34959,-66.19802 3.51495,-11.14935 2.20498,-29.09188 -2.91475,-39.92353 C 451.55264,113.55662 320.734,68.417735 161.11491,65.560845 138.30044,65.152487 100.76035,66.144132 93.670789,67.342418 l -3.465855,0.585799 0.375095,78.974753 0.375057,78.9748 74.590714,0.32845 74.59063,0.3285 0.39564,15.92321 c 0.21747,8.75782 0.21747,15.99031 0,16.07224 -0.21747,0.0813 -33.9613,0.30362 -74.98618,0.49246 l -74.590746,0.34356 -0.40836,35.12956 c -0.224366,19.32129 -0.06722,35.76655 0.362111,36.54498 0.619954,1.13893 2.287215,1.51061 8.532498,1.90291 24.578107,1.54369 52.142457,1.87148 77.182397,0.91788 z m -62.03579,-7.73655 -5.90819,-0.43941 0,-29.54825 0,-29.54828 74.59071,-0.32841 74.59072,-0.32844 0,-23.31033 0,-23.31026 -74.59072,-0.3285 -74.59071,-0.32847 0,-72.18187 0,-72.181852 4.43109,-0.555526 c 7.75554,-0.972332 60.63845,-0.672457 79.76036,0.452273 125.08037,7.357082 225.52668,41.322805 262.73396,88.842965 51.77545,66.1265 -44.16377,137.53367 -212.30888,158.02029 -32.9394,4.01332 -50.88432,5.08632 -88.82818,5.3113 -18.6846,0.11099 -36.63068,0.003 -39.88016,-0.23795 z m 76.1118,-1.11931 c 73.84562,-4.04249 142.27287,-18.07187 191.67418,-39.29828 46.10531,-19.81017 73.33148,-42.60383 83.22836,-69.67872 3.12112,-8.53856 2.38779,-26.77328 -1.44561,-35.94489 -8.09634,-19.37087 -27.66078,-38.14216 -55.95312,-53.68478 -12.23322,-6.72037 -38.29294,-17.84236 -54.09026,-23.08508 C 308.43901,88.155424 252.96717,78.369217 192.8674,74.866822 174.93035,73.82153 126.94901,73.446627 115.47692,74.262153 l -6.07148,0.431637 0.37545,71.65222 0.37616,71.65218 74.59071,0.32847 74.5907,0.32851 0.38828,23.23278 c 0.27787,16.6002 -0.0907,23.48917 -1.28866,24.13102 -1.37778,0.73802 -14.82264,0.89831 -75.34835,0.89831 l -73.67137,0 0,29.18032 0,29.18029 5.53898,0.25759 c 15.05535,0.70014 58.873,0.39334 75.74261,-0.52976 z"
     id="path4017"
     inkscape:connector-curvature="0" /></svg>